{"title":"å†°ä¹‹å¥³/Die Eisbaderin(2004)Alla churikova","uid":10082984,"size":131753128,"categoryP":"other","categoryS":"other","magnet":"?xt=urn:btih:a9550b545fb4fa2aa058cc4fe1cc0b5240cee91b&amp;dn=%E5%86%B0%E4%B9%8B%E5%A5%B3%2FDie+Eisbaderin%282004%29Alla+churikova&amp;tr=udp%3A%2F%2Ftracker.openbittorrent.com%3A80&amp;tr=udp%3A%2F%2Fopen.demonii.com%3A1337&amp;tr=udp%3A%2F%2Ftracker.coppersurfer.tk%3A6969&amp;tr=udp%3A%2F%2Fexodus.desync.com%3A6969","seeders":0,"leechers":1,"uploader":"app1985","files":-1,"time":1399044560,"description":" &lt;a href=&quot;http://www.imdb.com/title/tt0422163/&quot; rel=&quot;nofollow&quot; target=&quot;_NEW&quot;&gt;http://www.imdb.com/title/tt0422163/&lt;/a&gt;\n\n\n\nScreen: http://bayimg.com/LAnCEAaFP\n\n\n\nComplete name                  : Die Eisbaderin alla churikova.avi\nFormat                         : AVI\nFormat/Info                    : Audio Video Interleave\nFile size                      : 126 MiB\nDuration                       : 7mn 27s\nOverall bit rate               : 2 354 Kbps\nWriting application            : Lavf51.12.1\nWriting library                : VirtualDub-MPEG2 build 24600/release\n\nVideo\nID                             : 0\nFormat                         : MPEG-4 Visual\nFormat settings, BVOP          : Yes\nFormat settings, QPel          : No\nFormat settings, GMC           : No warppoints\nFormat settings, Matrix        : Default (H.263)\nCodec ID                       : DX50\nCodec ID/Hint                  : DivX 5\nDuration                       : 7mn 27s\nBit rate                       : 2 152 Kbps\nWidth                          : 640 pixels\nHeight                         : 384 pixels\nDisplay aspect ratio           : 1.667\nFrame rate                     : 25.000 fps\nColor space                    : YUV\nChroma subsampling             : 4:2:0\nBit depth                      : 8 bits\nScan type                      : Progressive\nCompression mode               : Lossy\nBits/(Pixel*Frame)             : 0.350\nStream size                    : 115 MiB (91%)\nWriting library                : DivX 5.2.1 (WaffleDay) (UTC 2004-09-08)\n\nAudio\nID                             : 1\nFormat                         : MPEG Audio\nFormat version                 : Version 1\nFormat profile                 : Layer 3\nMode                           : Joint stereo\nMode extension                 : MS Stereo\nCodec ID                       : 55\nCodec ID/Hint                  : MP3\nDuration                       : 7mn 27s\nBit rate mode                  : Constant\nBit rate                       : 192 Kbps\nChannel(s)                     : 2 channels\nSampling rate                  : 48.0 KHz\nCompression mode               : Lossy\nStream size                    : 10.2 MiB (8%)\nAlignment                      : Split accross interleaves\nInterleave, duration           : 40 ms (1.00 video frame)\nInterleave, preload duration   : 500 ms\nWriting library                : LAME3.97\n","torrent":{"xt":"urn:btih:a9550b545fb4fa2aa058cc4fe1cc0b5240cee91b","amp;dn":"%E5%86%B0%E4%B9%8B%E5%A5%B3%2FDie+Eisbaderin%282004%29Alla+churikova","amp;tr":["udp%3A%2F%2Ftracker.openbittorrent.com%3A80","udp%3A%2F%2Fopen.demonii.com%3A1337","udp%3A%2F%2Ftracker.coppersurfer.tk%3A6969","udp%3A%2F%2Fexodus.desync.com%3A6969"],"infoHash":"a9550b545fb4fa2aa058cc4fe1cc0b5240cee91b","infoHashBuffer":{"type":"Buffer","data":[169,85,11,84,95,180,250,42,160,88,204,79,225,204,11,82,64,206,233,27]},"announce":[],"urlList":[]}}